<?xml version="1.0" encoding="UTF-8" standalone="no"?>
<!DOCTYPE svg PUBLIC "-//W3C//DTD SVG 1.1//EN" "http://www.w3.org/Graphics/SVG/1.1/DTD/svg11.dtd">
<svg version="1.1" xmlns="http://www.w3.org/2000/svg" xmlns:xlink="http://www.w3.org/1999/xlink" preserveAspectRatio="xMidYMid meet" viewBox="0 0 640 640" width="640" height="640"><defs><path d="M-13.08 320L685.7 320L685.7 733.93L-13.08 733.93L-13.08 320Z" id="b86dnFbzDB"></path><path d="M-7.15 -11.3L713.37 -11.3L713.37 324.74L-7.15 324.74L-7.15 -11.3Z" id="g2u77imVX6"></path><path d="M521.63 320.59C521.63 434.49 431.28 526.97 320 526.97C208.72 526.97 118.37 434.49 118.37 320.59C118.37 206.69 208.72 114.22 320 114.22C431.28 114.22 521.63 206.69 521.63 320.59Z" id="e9IVEcYAg"></path><path d="M217.21 218L209.3 224.92L200.41 232.83L193.49 241.72L186.57 249.63L178.66 256.55L172.73 265.44L167.79 274.34L164.83 285.21L163.84 296.08L164.83 308.93L166.8 320.79L168.78 330.67L175.7 339.57L180.64 348.47L185.58 358.35L188.55 368.23L192.5 380.09L195.47 391.95L202.38 399.86L211.28 407.77L221.16 412.71L234.01 410.73L243.9 406.78L251.8 399.86L256.74 390.97L264.65 384.05L273.55 378.12L283.43 375.15L294.3 373.17L307.15 372.19L319.01 372.19L328.9 374.16L340.76 375.15L351.63 376.14L360.52 381.08L366.45 389.98L378.31 390.97L382.27 400.85L380.29 411.72L385.23 421.6L395.12 423.58L405 427.53L415.87 427.53L425.76 424.57L434.65 419.63L441.57 411.72L447.5 402.83L451.45 392.94L459.36 380.09L466.28 371.2L474.19 361.31L481.1 353.41L486.05 344.51L489.01 334.63L489.01 320.79L486.05 308.93L481.1 297.07L476.16 286.2L470.23 276.31L464.3 267.42L453.43 258.52L446.51 250.62L439.59 239.74L433.66 230.85L424.77 221.95L414.88 214.05L406.98 207.13L402.03 196.26L400.06 184.4L398.08 171.55L394.13 158.7L387.21 150.79L383.26 160.67L381.28 170.56L378.31 180.44L380.29 190.33L380.29 201.2L374.36 210.09L366.45 218L355.58 224.92L344.71 229.86L332.85 229.86L319.01 229.86L307.15 228.87L297.27 226.9L286.4 222.94L280.47 214.05L285.41 203.17L289.36 193.29L290.35 182.42L280.47 175.5L270.58 173.52L259.71 174.51L254.77 185.38L247.85 193.29L236.98 198.23L227.09 201.2L220.17 211.08L216.22 220.97" id="a1I3ukTGvv"></path><path d="M386.22 444.34L390.17 454.22L394.13 465.09L400.06 473.99L408.95 478.93L419.83 476.95L425.76 468.06L427.73 457.19L429.71 447.3L420.81 442.36L409.94 443.35L400.06 445.33L389.19 445.33" id="d1d1hrnPLY"></path></defs><g><g><g><use xlink:href="#b86dnFbzDB" opacity="1" fill="#ff0000" fill-opacity="1"></use></g><g><use xlink:href="#g2u77imVX6" opacity="1" fill="#000000" fill-opacity="1"></use></g><g><use xlink:href="#e9IVEcYAg" opacity="1" fill="#ffe700" fill-opacity="1"></use></g><g><g><use xlink:href="#a1I3ukTGvv" opacity="1" fill-opacity="0" stroke="#000000" stroke-width="1" stroke-opacity="1"></use></g></g><g><g><use xlink:href="#d1d1hrnPLY" opacity="1" fill-opacity="0" stroke="#000000" stroke-width="1" stroke-opacity="1"></use></g></g></g></g></svg>